<svg data-v-423bf9ae="" xmlns="http://www.w3.org/2000/svg" viewBox="0 0 1180 1190" class="iconAbove"><!----><!----><!----><!----><g fill="currentColor" data-v-423bf9ae="" id="ad6e7010-4421-4bce-a4ef-b04d87d3976d" transform="matrix(3.6319264729817706,0,0,3.6319264729817706,0.8117396858249322,0.07691380584037688)" stroke="none" ><path d="M198.337 178.759c3.498-1.313 1.5-.457 31.686-15.2 32.064-15.662 66.6-5.978 78.853-17.738s20.671-70.186 13.462-80.66c-26.6-38.643-149.896-44.656-213.979-32.839-7.195-7.68-28.9-23.859-46.736-23.859-17.835 0-18.422 53.065-7.952 67.366 0 3.09-67.195 97.738-51.213 248.195 13.675 4.894 191.777 2.277 221.958 2.277 5.607-21.377-7.425-60.84-18.486-75.77-9.923-13.395-13.47-47.853-9.847-65.971-20.396 2.612-53.605 7.313-95.72-28.46 57.132 37.03 86.81 22.503 97.825 22.503.048.052.098.104.15.156zM104.75.133c10.42-.417 26.705 19.45 28.034 25.432-9.015.678-15.521 1.841-23.275 3.722-4.869-7.209-20.587-15.433-20.587-15.433S94.33.55 104.75.134zm35.33 67.596c1.736-2.575 10.838-10.705 25.09-9.19 14.251 1.516 27.383 16.582 26.128 18.98-1.98 3.781-4.377.73-6.963-1.117-2.473 1.494-8.771 6.474-20.188 5.07-11.416-1.404-18.968-8.642-18.825-10.68.142-2.038-2.623 2.699-5.033 2.178-2.41-.521-1.946-2.666-.21-5.24zm141.537 9.982c4.506-4.084 18.913 14.978 15.61 17.424-3.304 2.446-20.117-13.34-15.61-17.424zm35.318 1.597c-2.253-4.085-11.337 13.553-8.956 16.024 2.38 2.47 11.21-11.94 8.956-16.024z"></path></g><!----></svg>